<?xml version="1.0" encoding="UTF-8"?><svg id="Camada_1" xmlns="http://www.w3.org/2000/svg" viewBox="0 0 101.65 112"><defs><style>.cls-1{fill:#fff;}</style></defs><path d="m56.62,76.79l-2.64,2.29s10.74-5.75,14.51-7.24c3.33-1.31,13.74-4.05,13.74-4.05,0,0-11.69.51-14.04-.84-.45-.26-.71-.65-.8-1.18-2.26-14.41-4.51-62.66-4.53-63.14l-.12-2.64-6.04,24.33c-2.07,7.27-4.32,14.32-6.71,20.96-4.07-2.24-9.03-2.59-15.14-1.08-4.41,1.1-6.12-1.65-6.19-1.77l-.46-.77-.25.86c-.05.16-1.05,3.76.77,5.59-3.89,2.79-6.61,6.46-8.08,10.91-1.96,5.92-.99,12.32,2.43,15.93,2.3,2.43,5.36,3.27,8.64,2.38,4.95-1.34,6.72-5.23,6.72-8.41,0-3.47-1.94-6.43-4.73-7.2-1.85-.51-3.58-.02-4.73,1.33-1.06,1.24-1.37,2.93-.79,4.21l.09.2.22.02c.1,0,2.34.26,2.22,2.1-.07,1.15-1.1,2.08-2.51,2.26-1.52.2-3.47-.55-4.39-3.26-1.44-4.28-.8-8.82,1.7-12.56-.11.55-.15,1.09-.1,1.61.2,2.26,1.35,4.37,1.39,4.45l.32.58.35-.56s1.68-2.66,4.57-4.2c.82-.44,1.37-1.07,1.77-1.69.87,2.87,3.3,4.88,5.96,4.79,3.68-.11,5.6-5.05,5.68-5.26l.27-.72-.74.21c-1.68.48-2.62-.46-3.03-1.07-.86-1.28-.85-3.14.02-4.24.98-1.23,2.85-1.42,5.26-.51.33.13.68.28,1.05.46-10.85,28.62-23.33,47.3-37.09,55.53l-3.24,1.94,3.57-1.25c9.88-3.45,17.9-9.57,25.66-15.49,4.53-3.46,9.22-7.04,14.29-10.11l1.04-.63-1.21-.08s-3.21-.24-4.3-1.84c-.39-.58-.45-1.26-.19-2.09,2.26-7.04,4.64-14.53,6.73-21.79,4.37,5.13,6.2,12.17,6.34,12.7.15,2.49.15,3.07.13,3.19-.51,4.28-3.36,6.78-3.38,6.81Zm-1.73-27.55c1.11-4.05,2.05-7.81,2.85-11.4.41,5.19.9,11.63,1.33,17.38-1.15-2.23-2.55-4.23-4.18-5.98Z"/><path class="cls-1" d="m27.17,53.95c-.52.87-1.12,2.21-1,3.64.13,1.43.68,2.83,1.02,3.58,0,0,.25-4.51,2.63-7.59,2.38-3.08,6.29-5.2,6.29-5.2,0,0-6.44,2.25-8.36,4.27l-.59,1.3Z"/><path class="cls-1" d="m41.27,54.64c-1.66-3.1-3.19-.74-3.55-2.62-.27-1.4-.74-3.06,3.5-4.55,0,0-3.82.36-4.65,3.38-.57,2.06,1.03,5.62,3.08,6.29,2.05.67,4.79-.99,4.79-.99-1.27.12-2.44-.15-3.17-1.51Z"/><path class="cls-1" d="m33.49,62.49c-1.55-.43-2.99-.03-3.94,1.09-.8.94-1.09,2.22-.75,3.19,0,0,.78-3.51,4.56-2.08,1.44.55,1.45,2.04,2.05,2.05,1.04.03,1.94,1.21,2.23,2.75.01-.19.02-.37.02-.55,0-3.12-1.71-5.78-4.17-6.45Z"/><path class="cls-1" d="m31.56,46.74c1.8.74,3.94-.87,7.71-1.25,4.76-.48,7.61.13,11.46,2.47,4.07,2.48,6.76,6.1,6.97,6.39-1.01-1.74-2.19-3.32-3.52-4.73l-.15-.16c-1.26-1.32-3.63-3.04-3.63-3.04l-.4-.24c-3.96-2.34-8.86-2.74-14.96-1.22-3.55.88-5.6-.55-6.5-1.46.09,1.03,1.22,2.5,3.02,3.24Z"/><path class="cls-1" d="m20.47,63.75c.23-.96.46-1.91.56-2.4.22-1.09.87-1.19,1.16-2.34.29-1.16,1.8-4.24,3.98-6.45,2.18-2.22,6.52-4.17,6.52-4.17-1.54.3-2.65-.21-2.65-.21l-.45.31c-3.97,2.73-6.73,6.37-8.2,10.81-.49,1.48-.78,2.98-.9,4.46Z"/><path class="cls-1" d="m50.56,45.98s1.58,1.09,1.87,1.49c0,0,9.68-31.54,9.79-42.17l-4.77,19.23c-2.12,7.46-4.43,14.67-6.88,21.46Z"/><polygon class="cls-1" points="58.1 32.54 59.62 26.38 61.93 63.53 59.87 57.6 58.1 32.54"/><path class="cls-1" d="m62.22,70.71c.39-1.88,0-4.53,0-4.53,0,0-.04,2.75-.47,2.94-.42.19-.7.51-1.06,1.52-.38,2.23-1.3,3.96-2.12,5.1,0,0,3.27-3.15,3.66-5.03Z"/><path class="cls-1" d="m34.89,67.34s.02,1.32-.6,2.15c-.27.36-.84.36-1.39.24-.71-.15-1.43.22-1.74.88-.41.85-1.28,1.71-2.85,2.03-.94.19-2.1-.07-3.12-.79-.2-.14-.48-.09-.6.12-.09.16-.26.26-.62.02-1.42-.97-2.18-4.36-2.18-4.36.47,4,2.77,6.23,4.08,6.65,3.2,1.01,7.42-.92,8.52-3.27.96-2.05.51-3.67.51-3.67Z"/><path class="cls-1" d="m49.1,49.93c-10.14,26.82-21.73,45.02-34.49,54.18,0,0,13.48-7.44,23.62-23.14,5.89-9.12,11.79-26.43,12.84-29.58-.91-.72-1.6-1.2-1.98-1.46Z"/><path d="m86.48,84.46c-3.79,3.46-.66,11.15,6.98,10.69,7.91-.47,9.88-10.59,6.81-16.18-3.9-7.1-15.85-12.9-34.39-3.23-18.01,9.4-36.16,24.78-44.1,29.46-10.61,6.26-21.78,6.74-21.78,6.74,0,0,12.49.93,23.66-4.91,11.17-5.84,32.75-22.99,45.46-28.9,12.51-5.81,21.17-4.53,25.88.06,4.62,4.51.99,13.82-2.83,11.3-2.41-1.59,1.59-5.25,1.59-5.25,0,0-3.79-2.98-7.29.2Z"/><path class="cls-1" d="m32.85,99.33c12.84-9.38,30.3-21.01,38.14-24.21,6.34-2.58,11.08-3.7,17.06-3.35-1.26-.22-2.59-.33-4.01-.33-5.04,0-11.04,1.46-17.8,4.98-11.6,6.05-23.03,14.43-32.22,21.17-4.83,3.54-9.01,6.6-11.84,8.28-3.04,1.79-6.1,3.12-8.94,4.09.15-.03.31-.07.47-.11,1.73-.46,8.25-2.57,19.15-10.52Z"/><path class="cls-1" d="m90.44,92.04c-1.07-.42-2.85-3.24-2.11-5.36.74-2.12,4.22-2.28,4.22-2.28-1.14-.59-3.41-1.32-5.55.63-.55.5-.93,1.12-1.15,1.8-.34,1.23-.2,2.43-.04,2.7.89,1.5,2.02-.06,2.63.94.75,1.24,2,1.57,2,1.57Z"/><path class="cls-1" d="m97.5,90.7c1.93-1.97,3.16-6.13,1.36-10.38-2.17-5.1-7.96-6.82-7.96-6.82,0,0,1.89.92,2.54,1.46.2.17.35.62.49,1.04.09.26.26.49.48.66.43.33.81.67,1.14.99,3.46,3.38,2.72,9.01.67,11.55-.29.36.6,1.47-.38,2.36-1.14,1.04-3.28,1.15-3.28,1.15,0,0,2.5.5,4.95-2.01Z"/></svg>